HIERARCHY
ROOT Hips
{
	OFFSET 0 13 -8
	CHANNELS 6 Xposition Yposition Zposition Zrotation Xrotation Yrotation
	JOINT RightUpLeg
	{
		OFFSET -8.9458 -8.66707 0.101652
		CHANNELS 3 Zrotation Xrotation Yrotation
		JOINT RightLeg
		{
			OFFSET -3.90799e-014 -44.4227 1.3727
			CHANNELS 3 Zrotation Xrotation Yrotation
			JOINT RightFoot
			{
				OFFSET 0.253549 -42.0924 -1.46059
				CHANNELS 3 Zrotation Xrotation Yrotation
				JOINT RightToes
				{
					OFFSET 0.04 -4.41509 8.4991
					CHANNELS 3 Zrotation Xrotation Yrotation
					End Site
					{
						OFFSET -0.08 -0.137448 9.77979
					}
				}
			}
		}
	}
	JOINT Spine
	{
		OFFSET -1.77636e-014 11.8905 1.77636e-015
		CHANNELS 3 Zrotation Xrotation Yrotation
		JOINT Spine1
		{
			OFFSET 0 25.6574 0.127663
			CHANNELS 3 Zrotation Xrotation Yrotation
			JOINT head
			{
				OFFSET -1.42109e-014 8.73416 0.011341
				CHANNELS 3 Zrotation Xrotation Yrotation
				End Site
				{
					OFFSET -0.29 12.7742 2.51395
				}
			}
			JOINT LeftShoulder1
			{
				OFFSET 8.99 -0.362252 -0.22
				CHANNELS 3 Zrotation Xrotation Yrotation
				JOINT LeftArm
				{
					OFFSET 10.2827 -0.00338 0.322123
					CHANNELS 3 Zrotation Xrotation Yrotation
					JOINT LeftForeArm
					{
						OFFSET 32.7669 0.099144 -1.42434
						CHANNELS 3 Zrotation Xrotation Yrotation
						JOINT LeftHand
						{
							OFFSET 27.5643 0.085362 1.02216
							CHANNELS 3 Zrotation Xrotation Yrotation
							End Site
							{
								OFFSET 16.7443 -0.6 1.50291
							}
						}
					}
				}
			}
			JOINT RightShoulder
			{
				OFFSET -8.99 -0.362252 -0.22
				CHANNELS 3 Zrotation Xrotation Yrotation
				JOINT RightArm
				{
					OFFSET -10.2827 -0.00338 0.322123
					CHANNELS 3 Zrotation Xrotation Yrotation
					JOINT RightForeArm
					{
						OFFSET -32.8971 0.099144 -1.42434
						CHANNELS 3 Zrotation Xrotation Yrotation
						JOINT RightHand
						{
							OFFSET -27.4921 0.085362 1.02216
							CHANNELS 3 Zrotation Xrotation Yrotation
							End Site
							{
								OFFSET -16.6312 -0.6 1.50291
							}
						}
					}
				}
			}
		}
	}
	JOINT LeftUpLeg
	{
		OFFSET 8.9458 -8.66707 0.101652
		CHANNELS 3 Zrotation Xrotation Yrotation
		JOINT LeftLeg
		{
			OFFSET 7.10543e-014 -44.4227 1.3727
			CHANNELS 3 Zrotation Xrotation Yrotation
			JOINT LeftFoot
			{
				OFFSET -0.253549 -42.0924 -1.46059
				CHANNELS 3 Zrotation Xrotation Yrotation
				JOINT LeftToes
				{
					OFFSET -0.04 -4.41509 8.4991
					CHANNELS 3 Zrotation Xrotation Yrotation
					End Site
					{
						OFFSET 0.08 -0.047448 9.77979
					}
				}
			}
		}
	}
}
MOTION
Frames: 21
Frame Time: 0.0333333
12.9168 89.3104 -21.9003 10.3502 -5.95065 -21.0747 -12.0045 -36.376 -16.2282 -11.6966 59.3136 -12.6874 -9.6833 -0.293158 0.502007 -17.7464 -35.532 0.60723 -1.32388 12.5152 -2.75473 -1.65433 24.6922 -5.91208 -9.23276 -34.877 13.9572 -5.03302e-021 -3.88251e-019 1.21329e-020 -12.8418 -44.3093 22.5948 40.193 27.5425 -119.968 1.53943 10.2976 57.7413 12.3403 0.189048 -1.46735 81.3093 -69.3287 99.2113 -73.2015 -0.679986 119.421 -51.8806 22.7176 -31.6385 31.2781 -20.0932 2.1249 -32.8817 53.1462 46.7448 -13.9624 16.1413 2.78602 10.8898 -13.5221 -8.95887 
14.436 87.485 -20.1366 10.648 -6.69883 -25.2646 -12.603 -38.767 -14.5061 -15.1093 63.4597 -8.33574 -10.531 -0.880897 0.499252 -19.2246 -37.321 -0.816145 -0.841382 11.6799 -3.13653 -1.41008 23.1537 -6.71501 -10.1676 -33.5507 19.372 -5.03302e-021 -3.88251e-019 1.21329e-020 -14.3243 -42.7354 25.029 10.1037 35.4708 -76.6319 4.52305 11.2595 44.4635 9.06969 0.0638136 -2.4064 8.86778 -76.286 34.6338 -102.073 -23.38 110.302 -35.187 21.557 -41.8997 28.492 -6.25856 -9.69692 -23.7056 37.1518 39.4511 -15.1796 13.561 2.71514 9.30303 -11.2235 -5.29209 
16.3867 85.201 -18.3023 10.092 -6.44823 -29.2013 -11.6277 -42.1318 -12.9278 -22.7941 67.398 0.040327 -10.1874 -1.31596 0.43717 -20.6107 -38.7915 -2.28473 0.746359 10.8709 -3.94673 -0.433317 21.4272 -7.87332 -10.0198 -32.469 25.9994 -5.03302e-021 -3.88251e-019 1.21329e-020 -29.4425 -30.32 17.6579 2.96876 7.05336 -40.4596 2.5446 10.4472 38.5986 5.23859 -0.00301295 -3.38508 -23.9091 -69.3648 6.66453 165.336 -11.5592 40.9053 -17.6771 4.33403 32.0455 24.7717 5.99719 -15.8294 -11.1926 24.2762 26.7853 -18.9748 7.59612 2.47737 6.826 -8.16274 0.607998 
18.3156 82.776 -17.0634 9.33095 -5.28954 -32.4153 -9.81985 -46.2539 -11.6052 -32.8391 70.4874 10.6785 -9.29202 -1.41429 0.37844 -21.7931 -40.0692 -3.37813 2.11624 10.2543 -4.7864 0.66709 19.9475 -9.22239 -8.58658 -32.3651 32.486 -5.03302e-021 -3.88251e-019 1.21329e-020 -36.3053 -22.9089 16.1718 5.50792 -9.25066 -17.6858 3.37823 10.6936 38.3396 2.83907 -0.00793381 -3.94735 -27.2019 -74.1937 6.08919 159.643 6.94099 37.5801 -35.5048 -4.26342 38.7066 22.8126 13.6114 -16.6891 -3.43641 16.9954 18.3479 -22.0694 -0.694011 1.34745 4.15446 -5.37638 5.26678 
19.0784 81.124 -16.8895 8.85746 -4.36914 -34.2448 -8.08462 -49.1563 -10.6813 -39.7316 72.3206 17.8669 -9.12409 -1.66068 0.347962 -22.3722 -40.6523 -3.93861 2.1261 9.99901 -5.13044 1.0417 19.411 -9.99239 -6.72156 -33.1702 36.8794 -5.03302e-021 -3.88251e-019 1.21329e-020 -38.1434 -23.0314 17.6578 6.54002 -19.2398 -7.04998 7.45354 11.8445 37.1535 2.51625 -0.00285234 -3.96279 75.8689 -86.7694 108.11 150.27 18.9313 36.7061 -32.7345 -5.53411 45.892 23.9332 16.8672 -15.8775 -3.01498 12.9874 16.4584 -23.1766 -4.81681 0.598453 3.82737 -5.18589 7.43066 
18.7847 80.2999 -17.7572 8.35969 -4.09144 -34.2973 -6.69494 -50.2851 -10.4086 -42.2217 73.4456 20.0365 -9.66368 -2.35703 0.313169 -22.0146 -40.047 -3.95657 1.59264 10.2727 -4.7561 0.37143 20.0182 -9.30935 -5.86875 -33.8183 37.6627 -5.03302e-021 -3.88251e-019 1.21329e-020 -38.7787 -27.0805 18.1446 7.8777 -28.8957 -7.07605 11.9001 12.774 33.664 3.06395 0.00664388 -3.67976 137.581 -68.3068 164.295 138.915 35.286 34.6379 -6.16347 5.96682 67.9596 26.6479 16.8523 -15.2667 -5.12697 12.1584 16.3 -23.0967 -4.36262 0.686553 4.56539 -5.99714 8.1052 
17.6761 80.2103 -19.429 7.86574 -4.19382 -32.5185 -5.38795 -49.9502 -10.8163 -41.3428 73.5003 17.6715 -10.5654 -3.10868 0.281 -21.0321 -38.561 -3.72118 1.02093 10.8232 -3.70341 -1.27219 21.1387 -6.98643 -6.48407 -33.4502 35.0528 -5.03302e-021 -3.88251e-019 1.21329e-020 -38.5303 -32.3224 16.5506 5.39059 -34.3879 -15.7333 11.4903 12.4612 31.5476 2.97672 0.030146 -3.36269 140.385 -58.0334 160.777 139.656 45.9207 30.5836 19.9087 25.3471 71.1879 28.7868 13.662 -15.5123 -5.97769 14.8166 17.6713 -22.4483 -0.339332 1.43924 5.22148 -6.63394 7.31105 
15.6958 80.7846 -21.7387 7.92732 -4.53863 -28.817 -5.00439 -48.5954 -12.5876 -37.2682 72.2621 10.8146 -12.1003 -3.63298 0.283832 -19.9745 -36.8425 -3.61102 -0.0383711 11.4135 -2.25793 -3.78755 22.3749 -3.82706 -7.01277 -32.4817 31.0175 -5.03302e-021 -3.88251e-019 1.21329e-020 -35.9554 -36.4319 15.3469 -5.89334 -33.3464 -32.6438 5.88256 11.1221 31.5008 1.77595 0.0480877 -3.33834 115.01 -66.6624 134.637 133.005 52.6953 36.6501 23.7727 26.4454 65.4603 29.8854 6.44548 -15.9039 -7.99383 20.9896 23.1716 -19.799 6.62268 2.42737 6.79997 -8.18836 3.11275 
13.0095 81.8796 -24.4314 8.53827 -5.03056 -23.4342 -6.82635 -46.481 -16.4334 -28.6288 70.4445 -0.501612 -14.0425 -4.05346 0.29876 -19.0252 -35.3983 -3.31577 -2.11497 12.2148 -0.726836 -6.78516 24.0849 -0.732555 -5.87084 -32.1586 26.9339 -5.03302e-021 -3.88251e-019 1.21329e-020 -27.2733 -38.6576 18.0337 -22.1214 -17.3094 -49.7886 0.276621 9.80155 28.1885 -0.109574 0.0562939 -3.74417 72.1651 -73.6595 95.509 134.646 29.3514 37.563 14.9697 22.2139 73.6562 29.8977 -4.99458 -13.66 -13.3688 31.8126 29.3575 -16.2218 12.7463 2.8002 10.545 -12.7378 -3.96817 
10.5496 83.0171 -27.0837 8.60319 -5.10937 -17.1739 -11.4618 -44.4957 -21.885 -12.8794 70.0152 -15.4499 -13.583 -4.08237 0.280346 -18.231 -35.0165 -1.64478 -3.88429 13.498 0.574293 -9.06631 26.4571 1.87902 -3.4921 -33.0821 22.8633 -5.03302e-021 -3.88251e-019 1.21329e-020 -9.53479 -40.6434 25.4095 -29.5009 20.287 -61.6629 -0.93816 9.60449 24.4143 -1.66778 0.0698035 -4.19492 7.28408 -70.3051 37.6633 145.446 -0.780026 48.3838 -11.2546 1.46307 73.1837 28.4548 -19.673 -5.45064 -17.8964 48.9862 27.2541 -17.8466 14.5155 3.35896 16.0115 -20.4166 -8.86414 
8.57828 84.0092 -29.307 7.14927 -4.48999 -10.6687 -18.5117 -42.7041 -28.3466 11.4438 70.9636 -32.1402 -7.04918 -2.36303 0.190583 -17.1592 -35.5994 2.44618 -3.57504 14.8097 1.36446 -9.37553 28.8339 3.76431 -1.27043 -34.923 18.7148 -5.03302e-021 -3.88251e-019 1.21329e-020 -1.80206 -33.6354 25.0699 -12.2451 40.3205 -100.305 -5.98145 7.77765 39.703 -2.08963 0.0779373 -4.22309 -22.3126 -53.2409 13.3553 164.777 -15.4744 59.8521 -26.9734 -4.08351 50.8871 25.4258 -34.2239 6.39848 -12.4734 66.9872 11.11 -26.1049 12.8832 4.63936 19.2636 -25.1079 -10.3003 
6.86066 84.7258 -30.8294 4.38475 -3.41812 -4.44209 -26.0021 -41.0618 -35.8352 33.3056 73.2655 -40.6317 4.00835 0.0763575 -0.392038 -13.8211 -31.0508 6.09581 -2.32941 15.5598 1.9462 -8.00354 30.432 5.01814 0.462356 -37.1282 14.8757 -5.03302e-021 -3.88251e-019 1.21329e-020 -11.9336 -13.9439 16.9624 8.4068 18.3892 -137.808 -18.7064 0.323452 56.4442 -1.07375 0.0767524 -3.62617 -26.6269 -46.6057 8.97804 -152.186 -32.4671 89.6749 -18.5629 7.93656 8.29703 21.3163 -44.8646 14.8682 1.15071 76.9151 -8.04515 -32.5847 11.4615 5.46679 18.7954 -24.7878 -11.4254 
5.14777 85.2028 -31.4713 0.683103 -2.1642 0.939919 -31.3667 -40.013 -41.9987 47.1934 78.9293 -44.4055 12.245 -0.822777 -0.861301 -9.96426 -21.765 4.15961 -1.26114 15.692 2.58109 -6.21746 30.8994 6.17097 2.25765 -39.1277 11.7217 -5.03302e-021 -3.88251e-019 1.21329e-020 -30.7659 18.6348 12.5737 23.6049 -22.7415 -145.915 -36.4832 -9.48595 57.4428 1.95264 0.109387 -2.28717 -14.7785 -57.651 16.951 -115.215 -23.373 108.539 -33.228 13.3542 -16.3739 17.7694 -49.0212 19.3861 6.16798 77.1188 -7.59275 -31.3411 14.6922 6.12174 22.4265 -30.4486 -13.4076 
3.46198 85.4029 -31.18 -3.11235 -0.933972 5.66918 -34.1478 -38.192 -41.9413 58.4216 83.7557 -56.3489 13.2904 -3.15802 -0.668409 -8.92197 -18.5281 1.05632 -0.623484 15.3818 3.20135 -4.99947 30.2876 7.40962 4.12976 -40.4084 8.68567 -5.03302e-021 -3.88251e-019 1.21329e-020 -46.6683 49.8902 12.2378 53.7373 -51.1047 -123.618 -55.4814 -14.3019 47.1955 6.99405 0.282116 -0.432209 34.5684 -67.6377 57.2966 -99.4853 -26.5705 113.894 -20.467 14.9912 -33.6245 16.01 -48.4483 21.3093 3.05724 72.3749 6.7295 -20.8096 17.2081 4.41972 33.0562 -43.4195 -11.2745 
1.85335 85.3208 -30.2863 -5.78553 0.0730974 10.5549 -35.2565 -32.9946 -32.9277 51.09 81.1302 -58.2424 8.54715 -5.2885 -0.334349 -7.15341 -15.0813 1.74479 -0.270854 14.7728 3.61408 -4.71015 28.9533 8.5307 5.60076 -40.9304 4.70889 -5.03302e-021 -3.88251e-019 1.21329e-020 -34.9436 56.3465 -10.3331 61.2509 -46.8667 -116.916 -64.9205 -16.4903 43.3393 11.8728 0.588675 1.23869 63.2881 -49.529 72.9191 -88.3258 -30.574 115.955 -4.88588 11.4963 -46.9987 14.8864 -47.3464 20.6717 0.953872 68.1089 17.186 -6.68138 12.7937 1.09581 38.0042 -46.7272 -6.83346 
0.216997 85.1417 -29.3337 -6.61902 0.710155 16.0164 -35.631 -23.884 -18.2597 37.7463 68.9007 -51.0638 4.34678 -5.66953 -0.234648 -4.69407 -10.0749 2.92747 -0.0445702 14.0604 3.76169 -5.48549 27.4897 9.49026 6.63958 -41.1077 -0.494208 -5.03302e-021 -3.88251e-019 1.21329e-020 -24.8181 45.4184 -34.9121 53.146 -26.0977 -120.248 -57.4646 -16.4261 48.8777 14.1332 0.83822 2.35544 68.9127 -22.6727 67.4873 -73.3404 -19.0022 123.482 -14.7891 15.0471 -45.225 13.2694 -47.5815 18.7964 1.12337 66.193 18.6364 0.127371 7.79352 -0.0795005 35.1079 -44.0071 -7.92712 
-1.73472 84.7297 -28.4656 -5.47595 1.0194 22.1049 -34.297 -12.3601 -4.29827 23.3035 52.1648 -36.7726 4.58476 -0.96097 -0.396462 -6.95231 -14.3777 0.408312 -0.864872 13.5597 3.78456 -7.34996 26.5234 10.2191 7.88923 -41.0037 -6.43481 -5.03302e-021 -3.88251e-019 1.21329e-020 -28.1283 35.2178 -51.6962 47.507 6.06002 -112.426 -35.2401 -7.69713 54.7682 14.1692 0.962231 3.08156 78.1735 -3.64 66.9278 -72.8402 7.91513 125.526 -33.8564 17.7144 -30.8705 10.832 -48.7519 17.3174 2.84593 66.324 14.6594 -1.07835 7.14848 0.0804215 33.603 -44.0793 -11.2367 
-4.23529 83.7078 -27.3849 -2.93722 1.33103 28.4395 -30.8888 0.449048 4.8146 7.4718 37.2749 -18.2555 9.28375 1.20657 -0.833563 -10.9161 -19.9974 -6.40612 -3.57884 13.4649 3.82543 -10.082 26.2554 10.1916 10.4713 -40.166 -11.9683 -5.03302e-021 -3.88251e-019 1.21329e-020 -38.5912 31.2578 -64.541 30.6371 41.1326 -83.187 -8.88581 6.46996 43.8156 14.2761 1.02478 3.42204 70.3963 19.6287 72.3483 -62.8895 36.1005 89.3038 -41.6331 13.9299 -15.3288 7.49596 -49.9784 16.4848 6.67665 67.5619 7.46901 -4.70194 8.41937 0.59157 33.8732 -46.1725 -14.1606 
-6.57921 82.5032 -26.3091 -0.449093 1.90296 33.8175 -28.358 11.311 8.95082 -2.45544 27.5429 -6.9715 14.1749 -3.57953 -0.654135 -10.6846 -18.3278 -11.0191 -6.57287 13.6685 3.50294 -12.8945 26.3998 8.97283 14.4919 -38.9367 -15.5544 -5.03302e-021 -3.88251e-019 1.21329e-020 -46.6143 36.9375 -74.0708 -2.39524 36.7293 -26.7562 6.44032 10.6738 20.0631 14.9797 1.05837 3.42536 41.2234 34.2444 95.853 -33.6581 41.7272 34.3759 -9.03609 12.3848 -38.172 4.20332 -50.8753 15.8683 11.3581 68.5981 -0.251724 -7.2689 9.2846 1.00054 34.3017 -47.9804 -16.121 
-7.36779 82.3901 -26.0171 0.371527 2.166 36.3911 -28.6097 15.5648 10.1877 -2.81738 23.3948 -4.47772 15.8803 -5.15142 -0.50691 -10.2054 -17.1278 -12.8818 -7.71941 13.6722 2.66725 -14.5234 26.3955 7.23989 17.9528 -38.6369 -16.6653 -5.03302e-021 -3.88251e-019 1.21329e-020 -58.4021 42.0755 -75.1402 -1.47098 -0.295306 -5.20559 10.6413 9.46703 -0.699779 15.6265 1.10697 3.52514 27.3936 32.364 110.874 -9.2397 56.5468 10.1802 11.4323 5.14318 -47.2251 2.57465 -50.7524 15.3543 12.5464 68.1217 -3.09045 -7.89251 9.08446 1.08025 33.6769 -48.0367 -17.4748 
-6.25371 83.9236 -26.7801 -0.965237 1.53697 34.9686 -30.7563 13.1626 10.106 2.50937 21.9069 -4.83124 14.6127 2.41771 -1.39641 -10.8304 -18.0498 -13.0096 -7.22637 13.3925 2.01406 -14.0748 26.0293 6.01124 19.3079 -39.7267 -15.9307 -5.03302e-021 -3.88251e-019 1.21329e-020 -75.5867 42.0456 -67.2538 1.78157 -58.0971 -11.3891 4.56644 8.85232 -26.4837 16.6334 1.2277 3.90327 28.501 34.6821 110.148 -10.1878 54.6802 13.428 6.26306 7.15725 -47.5397 3.73303 -49.2136 15.0886 8.92873 65.747 1.04428 -7.34439 8.33366 0.956929 32.1405 -46.3295 -18.0765 
